

Screens.....
 
http://img835.imageshack.us/i/po9.png
 
http://img404.imageshack.us/img404/5483/0m3c.png
 
http://img341.imageshack.us/img341/820/wao.png


Format : MatroskaFormat version : Version 4 / Version 2File size : 752 MiBDuration : 2h 15mnOverall bit rate mode : VariableOverall bit rate : 776 KbpsVideoID : 1Format : MPEG-4 VisualFormat profile : Advanced Simple@L5Format settings, BVOP : YesFormat settings, QPel : NoFormat settings, GMC : No warppointsFormat settings, Matrix : CustomCodec ID : V_MS/VFW/FOURCC / XVIDCodec ID/Hint : XviDDuration : 2h 15mnBit rate : 582 KbpsWidth : 576 pixelsHeight : 256 pixelsDisplay aspect ratio : 2.25:1Frame rate mode : ConstantFrame rate : 25.000 fpsColor space : YUVChroma subsampling : 4:2:0Bit depth : 8 bitsScan type : ProgressiveCompression mode : LossyBits/(Pixel*Frame) : 0.158Stream size : 564 MiB (75%)Writing library : XviD 1.2.0.dev47 (UTC 2006-11-01)Default : YesForced : NoAudio #1 HindiID : 2Format : AC-3Format/Info : Audio Coding 3Mode extension : CM (complete main)Format settings, Endianness : BigMuxing mode : Header strippingCodec ID : A_AC3Duration : 2h 15mnBit rate mode : ConstantBit rate : 64.0 KbpsChannel(s) : 2 channelsChannel positions : Front: L RSampling rate : 48.0 KHzBit depth : 16 bitsCompression mode : LossyStream size : 62.0 MiB (8%)Title : -=Ramukaka=-Default : NoForced : NoAudio #2 EnglishID : 3Format : MPEG AudioFormat version : Version 1Format profile : Layer 3Mode : Joint stereoMode extension : MS StereoMuxing mode : Header strippingCodec ID : A_MPEG/L3Codec ID/Hint : MP3Duration : 2h 15mnBit rate mode : VariableBit rate : 115 KbpsNominal bit rate : 128 KbpsChannel(s) : 2 channelsSampling rate : 48.0 KHzCompression mode : LossyStream size : 112 MiB (15%)